<?xml version="1.0" encoding="iso-8859-1"?>
<!-- Generator: Adobe Illustrator 19.0.0, SVG Export Plug-In . SVG Version: 6.00 Build 0)  -->
<svg version="1.1" id="Layer_1" xmlns="http://www.w3.org/2000/svg" xmlns:xlink="http://www.w3.org/1999/xlink" x="0px" y="0px"
	 viewBox="0 0 512 512" style="enable-background:new 0 0 512 512;" xml:space="preserve">
<g>
	<g>
		<g>
			<path d="M128,234.667c35.355,0,64-28.645,64-64s-28.645-64-64-64s-64,28.645-64,64S92.645,234.667,128,234.667z M128,149.333
				c11.791,0,21.333,9.542,21.333,21.333S139.791,192,128,192s-21.333-9.542-21.333-21.333S116.209,149.333,128,149.333z"/>
			<path d="M490.667,42.667H21.333C9.551,42.667,0,52.218,0,64v384c0,11.782,9.551,21.333,21.333,21.333h469.333
				c11.782,0,21.333-9.551,21.333-21.333V64C512,52.218,502.449,42.667,490.667,42.667z M469.333,426.667H42.667V85.333h426.667
				V426.667z"/>
			<path d="M91.582,377.752c8.331,8.331,21.839,8.331,30.17,0l91.582-91.582l48.915,48.915c8.331,8.331,21.839,8.331,30.17,0
				s8.331-21.839,0-30.17l-9.555-9.555l41.373-68.954l66.013,66.013c8.331,8.331,21.839,8.331,30.17,0
				c8.331-8.331,8.331-21.839,0-30.17l-85.333-85.333c-9.814-9.814-26.238-7.792-33.378,4.109l-49.942,83.237l-23.346-23.346
				c-8.331-8.331-21.839-8.331-30.17,0L91.582,347.582C83.251,355.913,83.251,369.42,91.582,377.752z"/>
		</g>
	</g>
</g>
<g>
</g>
<g>
</g>
<g>
</g>
<g>
</g>
<g>
</g>
<g>
</g>
<g>
</g>
<g>
</g>
<g>
</g>
<g>
</g>
<g>
</g>
<g>
</g>
<g>
</g>
<g>
</g>
<g>
</g>
</svg>
